<?xml version="1.0" encoding="iso-8859-1"?>
<!-- Generator: Adobe Illustrator 18.1.0, SVG Export Plug-In . SVG Version: 6.00 Build 0)  -->
<!DOCTYPE svg PUBLIC "-//W3C//DTD SVG 1.1//EN" "http://www.w3.org/Graphics/SVG/1.1/DTD/svg11.dtd">
<svg version="1.1" xmlns="http://www.w3.org/2000/svg" xmlns:xlink="http://www.w3.org/1999/xlink" x="0px" y="0px"
	 viewBox="0 0 246.787 63.732" style="enable-background:new 0 0 246.787 63.732;" xml:space="preserve">
<path style="fill:#00A67A;" d="M40.213,40.715c-0.336,0.336-0.705,0.573-1.131,0.725c-0.438,0.157-0.863,0.237-1.266,0.237
	c-0.833,0-1.385-0.265-1.738-0.835c-0.439-0.708-0.766-1.516-0.972-2.408c-0.138-0.584-0.235-1.33-0.289-2.219
	c-0.056-0.927-0.111-1.892-0.167-2.895c-0.056-1.013-0.131-1.998-0.225-2.956c-0.097-0.987-0.265-1.885-0.499-2.666
	c-0.409-1.386-1.116-2.537-2.101-3.42c-0.942-0.844-1.987-1.53-3.105-2.04c-0.829-0.378-1.657-0.678-2.472-0.894
	c0.816-0.259,1.542-0.573,2.174-0.943c1.373-0.804,2.446-1.71,3.189-2.692c0.743-0.985,1.235-1.973,1.462-2.94
	c0.218-0.935,0.324-1.689,0.324-2.307c0-1.205-0.291-2.498-0.864-3.845c-0.586-1.371-1.588-2.609-2.97-3.676
	c-1.541-1.225-3.23-1.977-5.021-2.236c-1.705-0.246-3.689-0.371-5.897-0.371c-0.455,0-0.91,0.011-1.367,0.03
	c-0.436,0.019-0.873,0.027-1.367,0.03c-0.436,0.037-0.871,0.064-1.309,0.082c-0.435,0.018-0.872,0.027-1.306,0.027H2v2.197h6.186
	v36.699H2v2.197h19.361v-2.197h-6.185V22.698h4.863c0.594,0,1.318,0.045,2.152,0.134c0.747,0.082,1.484,0.34,2.19,0.767
	c0.691,0.417,1.31,1.1,1.841,2.03c0.54,0.945,0.884,2.308,1.023,4.049l0.39,5.072c0.115,1.447,0.319,2.736,0.606,3.83
	c0.303,1.153,0.79,2.144,1.448,2.945c0.672,0.819,1.569,1.444,2.665,1.857c1.061,0.4,2.392,0.603,3.956,0.603
	c0.808,0,1.514-0.05,2.098-0.15c0.577-0.099,1.084-0.234,1.509-0.402c0.417-0.167,0.772-0.351,1.059-0.549
	c0.256-0.177,0.481-0.344,0.679-0.502l0.56-0.448l-1.451-1.775L40.213,40.715z M25.156,8.198c0.461,1.076,0.695,2.548,0.695,4.374
	c0,1.634-0.158,2.991-0.472,4.032c-0.301,1.004-0.725,1.799-1.258,2.365c-0.532,0.565-1.151,0.948-1.893,1.173
	c-0.784,0.239-1.67,0.36-2.634,0.36h-4.418V4.619c0.318-0.029,0.674-0.049,1.064-0.06c1.624-0.042,3.198-0.064,4.81,0.239
	c0.873,0.166,1.675,0.517,2.384,1.043C24.128,6.355,24.706,7.149,25.156,8.198z"/>
<path style="fill:#00A67A;" d="M62.311,20.076c-1.088-0.89-2.284-1.542-3.553-1.939c-1.254-0.392-2.45-0.59-3.555-0.59
	c-1.844,0-3.597,0.389-5.208,1.156c-1.592,0.756-3.003,1.772-4.193,3.021c-1.187,1.245-2.134,2.695-2.815,4.309
	c-0.684,1.621-1.031,3.317-1.031,5.04c0,1.98,0.337,3.804,1,5.423c0.667,1.627,1.622,3.048,2.839,4.225
	c1.217,1.178,2.677,2.092,4.34,2.717c1.654,0.622,3.472,0.937,5.404,0.937c1.957,0,3.59-0.315,4.855-0.936
	c1.244-0.612,2.252-1.341,3-2.168c0.736-0.817,1.285-1.653,1.633-2.488c0.331-0.801,0.55-1.403,0.669-1.841l0.199-0.733L63.7,35.773
	l-0.198,0.593c-0.141,0.423-0.359,0.987-0.65,1.677c-0.266,0.631-0.683,1.268-1.24,1.893c-0.544,0.61-1.309,1.142-2.273,1.582
	c-0.962,0.438-2.223,0.661-3.747,0.661c-1.477,0-2.659-0.312-3.516-0.927c-0.879-0.629-1.552-1.435-2-2.397
	c-0.467-1.004-0.774-2.148-0.913-3.402c-0.145-1.3-0.218-2.568-0.218-3.766c0-0.58,0.008-1.06,0.027-1.444
	c0.007-0.157,0.013-0.313,0.018-0.467h17.175v-0.709c0-2.143-0.372-3.975-1.107-5.443C64.328,22.163,63.403,20.969,62.311,20.076z
	 M52.231,20.392c0.698-0.429,1.623-0.647,2.749-0.647c0.627,0,1.217,0.091,1.755,0.27c0.496,0.165,0.906,0.436,1.252,0.826
	c0.357,0.405,0.645,0.971,0.855,1.683c0.221,0.751,0.333,1.733,0.333,2.92v1.394c0,0.234-0.011,0.481-0.033,0.74H49.113
	c0.083-0.918,0.218-1.807,0.402-2.652c0.226-1.039,0.566-1.966,1.011-2.754C50.947,21.426,51.52,20.827,52.231,20.392z"/>
<path style="fill:#00A67A;" d="M84.264,38.079c-0.2,1.098-0.663,2.084-1.377,2.931c-0.664,0.787-1.517,1.168-2.607,1.168
	c-0.307,0-0.625-0.047-0.948-0.139c-0.269-0.077-0.52-0.241-0.768-0.503c-0.259-0.273-0.476-0.686-0.646-1.23
	c-0.182-0.578-0.274-1.359-0.274-2.323V20.469h7.913v-2.198h-7.913V9.869l-1.152,0.923c-0.3,0.241-0.618,0.415-0.942,0.519
	c-0.337,0.107-0.752,0.161-1.234,0.161c-0.768,0-1.053-0.058-1.143-0.084c-0.244-0.07-0.504-0.156-0.782-0.261l-0.958-0.359v7.503
	h-4.291v2.198h4.291v17.013c0,2.157,0.625,3.865,1.856,5.074c1.245,1.225,3.312,1.82,6.32,1.82c1.213,0,2.253-0.201,3.09-0.598
	c0.827-0.392,1.515-0.902,2.044-1.516c0.517-0.6,0.907-1.244,1.157-1.912c0.231-0.613,0.409-1.187,0.53-1.706l0.142-0.615
	l-2.16-0.771L84.264,38.079z"/>
<path style="fill:#00A67A;" d="M95.827,9.658c1.008,0,1.88-0.36,2.591-1.071c0.711-0.711,1.071-1.583,1.071-2.591
	c0-1.007-0.36-1.878-1.072-2.591c-0.712-0.71-1.583-1.071-2.59-1.071c-1.008,0-1.88,0.361-2.591,1.071
	c-0.71,0.711-1.071,1.582-1.071,2.591c0,1.01,0.36,1.882,1.07,2.59C93.946,9.297,94.818,9.658,95.827,9.658z"/>
<polygon style="fill:#00A67A;" points="99.044,18.272 88.543,18.272 88.543,20.469 92.834,20.469 92.834,41.398 88.543,41.398 
	88.543,43.595 103.335,43.595 103.335,41.398 99.044,41.398 "/>
<path style="fill:#00A67A;" d="M126.875,19.353c-0.473-0.492-1.073-0.901-1.785-1.216c-0.719-0.316-1.566-0.477-2.515-0.477
	c-1.302,0-2.436,0.253-3.371,0.752c-0.905,0.483-1.69,1.086-2.334,1.79c-0.38,0.415-0.714,0.846-0.998,1.289v-3.219h-10.389v2.199
	h4.291v20.929h-4.291v2.197h15.349v-2.197h-4.848V29.346c0-1.48,0.185-2.803,0.55-3.934c0.368-1.139,0.827-2.12,1.363-2.915
	c0.521-0.774,1.084-1.365,1.673-1.757c0.546-0.365,1.051-0.55,1.501-0.55c1.038,0,1.241,0.394,1.241,1.075
	c0,0.518-0.045,0.786-0.083,0.917c-0.065,0.224-0.136,0.424-0.217,0.602c-0.1,0.222-0.19,0.443-0.269,0.659
	c-0.104,0.284-0.156,0.629-0.156,1.053c0,0.848,0.411,2.27,3.16,2.27c0.893,0,1.69-0.253,2.37-0.751
	c0.757-0.555,1.125-1.544,1.125-3.024c0-0.631-0.106-1.268-0.315-1.897C127.707,20.44,127.354,19.855,126.875,19.353z"/>
<path style="fill:#00A67A;" d="M150.636,20.076c-1.089-0.89-2.284-1.543-3.553-1.939c-1.254-0.392-2.45-0.59-3.555-0.59
	c-1.844,0-3.597,0.389-5.208,1.156c-1.593,0.756-3.003,1.772-4.193,3.021c-1.188,1.246-2.135,2.696-2.815,4.309
	c-0.684,1.621-1.031,3.317-1.031,5.04c0,1.981,0.337,3.805,1,5.423c0.666,1.627,1.622,3.048,2.839,4.225
	c1.217,1.178,2.677,2.092,4.34,2.717c1.654,0.622,3.472,0.937,5.404,0.937c1.957,0,3.59-0.315,4.855-0.936
	c1.243-0.612,2.253-1.341,3.001-2.168c0.736-0.817,1.285-1.654,1.633-2.488c0.331-0.801,0.55-1.403,0.669-1.841l0.199-0.732
	l-2.191-0.437l-0.198,0.592c-0.146,0.433-0.365,0.997-0.651,1.678c-0.266,0.631-0.683,1.268-1.24,1.893
	c-0.545,0.61-1.31,1.142-2.273,1.582c-0.962,0.438-2.223,0.661-3.747,0.661c-1.477,0-2.659-0.312-3.516-0.927
	c-0.88-0.629-1.552-1.436-1.999-2.397c-0.467-1.004-0.774-2.148-0.913-3.402c-0.145-1.305-0.218-2.572-0.218-3.766
	c0-0.58,0.008-1.06,0.027-1.445c0.007-0.157,0.013-0.312,0.018-0.466h17.175v-0.709c0-2.143-0.372-3.975-1.107-5.443
	C152.653,22.163,151.728,20.97,150.636,20.076z M140.555,20.392c0.699-0.429,1.624-0.647,2.751-0.647
	c0.627,0,1.216,0.091,1.754,0.27c0.496,0.165,0.906,0.436,1.252,0.826c0.357,0.406,0.645,0.973,0.855,1.683
	c0.221,0.75,0.333,1.732,0.333,2.92v1.394c0,0.235-0.011,0.482-0.033,0.74h-10.029c0.084-0.92,0.219-1.809,0.402-2.652
	c0.226-1.039,0.566-1.966,1.011-2.754C139.271,21.426,139.844,20.827,140.555,20.392z"/>
<path style="fill:#00A67A;" d="M181.005,41.088c-0.351,0.255-0.717,0.447-1.089,0.57c-0.372,0.124-0.729,0.186-1.059,0.186
	c-0.631,0-0.849-0.242-0.922-0.323c-0.075-0.083-0.319-0.451-0.319-1.699V25.946c0-1.072-0.162-2.112-0.481-3.091
	c-0.33-1.008-0.891-1.925-1.67-2.726c-0.778-0.797-1.803-1.435-3.048-1.897c-1.226-0.454-2.753-0.685-4.537-0.685
	c-1.476,0-2.811,0.179-3.968,0.533c-1.175,0.358-2.173,0.858-2.966,1.489c-0.803,0.641-1.421,1.386-1.835,2.215
	c-0.42,0.838-0.633,1.733-0.633,2.658c0,0.847,0.19,1.561,0.566,2.121c0.448,0.671,1.361,0.984,2.874,0.984
	c0.89,0,1.598-0.244,2.104-0.724c0.516-0.489,0.777-1.103,0.777-1.823c0-0.346-0.059-0.833-0.178-1.492
	c-0.103-0.568-0.155-1.153-0.155-1.74c0-0.709,0.254-1.16,0.824-1.465c0.69-0.37,1.599-0.558,2.702-0.558
	c0.82,0,1.469,0.108,1.929,0.323c0.429,0.201,0.747,0.484,0.972,0.863c0.251,0.423,0.426,0.948,0.523,1.56
	c0.105,0.665,0.158,1.433,0.158,2.286c0,1.052-0.076,1.883-0.228,2.471c-0.135,0.525-0.371,0.944-0.723,1.282
	c-0.372,0.356-0.919,0.671-1.623,0.933c-0.794,0.295-1.798,0.646-3.008,1.048c-1.035,0.333-2.058,0.647-3.074,0.942
	c-1.067,0.311-2.053,0.715-2.933,1.203c-0.932,0.519-1.699,1.223-2.279,2.094c-0.596,0.894-0.899,2.076-0.899,3.513
	c0,0.616,0.092,1.285,0.273,1.987c0.198,0.772,0.607,1.473,1.216,2.081c0.588,0.588,1.403,1.083,2.424,1.471
	c1.019,0.387,2.322,0.575,3.985,0.575c1.448,0,2.671-0.173,3.635-0.514c0.971-0.343,1.769-0.78,2.373-1.301
	c0.544-0.469,0.971-0.97,1.271-1.49c0.34,0.782,0.789,1.44,1.343,1.968c0.932,0.888,2.399,1.338,4.361,1.338
	c1.056,0,1.973-0.159,2.725-0.472c0.725-0.303,1.36-0.661,1.887-1.068l0.545-0.421l-1.267-1.743L181.005,41.088z M163.684,40.582
	c-0.247-0.386-0.42-0.836-0.512-1.337c-0.103-0.55-0.156-1.087-0.156-1.596c0-1.142,0.273-2.099,0.813-2.845
	c0.55-0.76,1.366-1.363,2.419-1.791l4.191-1.677c0.369-0.155,0.691-0.312,0.967-0.473v3.943c0,0.702-0.063,1.503-0.188,2.379
	c-0.119,0.831-0.358,1.612-0.712,2.32c-0.334,0.667-0.836,1.233-1.494,1.682c-0.636,0.436-1.505,0.656-2.581,0.656
	c-0.73,0-1.318-0.12-1.747-0.357C164.245,41.245,163.919,40.949,163.684,40.582z"/>
<path style="fill:#00A67A;" d="M213.186,43.596v-2.197h-4.291V2h-10.501v2.197h4.291v16.671c-0.461-0.607-1.008-1.162-1.636-1.662
	c-1.385-1.1-3.202-1.658-5.4-1.658c-1.698,0-3.321,0.371-4.824,1.103c-1.481,0.721-2.806,1.689-3.938,2.878
	c-1.131,1.191-2.041,2.604-2.704,4.202c-0.663,1.602-1.001,3.306-1.001,5.064c0,1.798,0.347,3.531,1.031,5.151
	c0.68,1.614,1.616,3.063,2.783,4.305c1.171,1.25,2.546,2.258,4.084,2.997c1.558,0.749,3.227,1.129,4.96,1.129
	c1.364,0,2.547-0.24,3.515-0.713c0.939-0.458,1.737-1.022,2.37-1.676c0.331-0.341,0.623-0.693,0.873-1.052v2.661H213.186z
	 M190.171,30.126c0-1.677,0.091-3.191,0.272-4.502c0.175-1.279,0.482-2.38,0.911-3.272c0.408-0.848,0.96-1.481,1.687-1.934
	c0.718-0.447,1.67-0.673,2.83-0.673c1.248,0,2.278,0.215,3.062,0.639c0.795,0.431,1.449,0.984,1.933,1.627
	c0.342,0.481,0.637,1,0.875,1.545c0.237,0.542,0.427,1.202,0.565,1.96c0.144,0.793,0.243,1.71,0.296,2.725
	c0.055,1.029,0.082,2.283,0.082,3.725c0,1.187-0.091,2.429-0.27,3.689c-0.176,1.222-0.51,2.341-0.993,3.326
	c-0.466,0.947-1.13,1.73-1.974,2.325c-0.82,0.579-1.949,0.873-3.354,0.873c-1.373,0-2.459-0.26-3.229-0.773
	c-0.766-0.509-1.352-1.262-1.741-2.236c-0.417-1.041-0.681-2.328-0.787-3.827C190.226,33.789,190.171,32.034,190.171,30.126z"/>
<path style="fill:#00A67A;" d="M231.272,18.272v2.198h4.258l-6.433,14.961l-6.147-14.961h4.333v-2.198h-15.071v2.198h4.076
	l9.356,23.146l-2.348,5.975c-0.583,1.458-1.121,2.711-1.598,3.721c-0.46,0.972-0.922,1.764-1.372,2.352
	c-0.422,0.551-0.845,0.947-1.259,1.177c-0.396,0.221-0.821,0.328-1.299,0.328c-0.396,0-0.603-0.07-0.685-0.111
	c-0.015-0.021-0.054-0.126-0.054-0.349c0-0.417,0.115-0.788,0.351-1.135c0.395-0.583,0.596-1.213,0.596-1.874
	c0-0.522-0.139-0.98-0.41-1.357c-0.244-0.344-0.545-0.619-0.894-0.818c-0.328-0.187-0.684-0.318-1.057-0.388
	c-1.357-0.256-2.469,0.007-3.333,0.781c-0.675,0.602-1.018,1.484-1.018,2.619c0,0.391,0.061,0.844,0.186,1.384
	c0.136,0.59,0.43,1.158,0.87,1.686c0.429,0.518,1.019,0.972,1.753,1.349c0.749,0.385,1.73,0.58,2.915,0.58
	c0.993,0,1.883-0.183,2.644-0.543c0.748-0.353,1.451-0.885,2.088-1.583c0.614-0.674,1.202-1.55,1.75-2.604
	c0.53-1.024,1.066-2.229,1.592-3.582c0.631-1.634,1.262-3.258,1.893-4.873c0.616-1.577,1.287-3.189,1.998-4.799l9.012-21.081h3.25
	v-2.198H231.272z"/>
</svg>
