<?xml version="1.0" encoding="utf-8"?>
<!-- Generator: Adobe Illustrator 22.1.0, SVG Export Plug-In . SVG Version: 6.00 Build 0)  -->
<svg version="1.1" id="Layer_1" xmlns="http://www.w3.org/2000/svg" xmlns:xlink="http://www.w3.org/1999/xlink" x="0px" y="0px"
	 viewBox="0 0 32 32" style="enable-background:new 0 0 32 32;" xml:space="preserve">
<g id="icomoon-ignore">
</g>
<path d="M23.1,3.4l-0.7-0.3l-0.5,0.3v0L16,6.3L9.6,3.1L2.7,6.5v22.4l6.9-3.5l6.4,3.2l6.4-3.2l6.9,3.5V6.5L23.1,3.4L23.1,3.4z
	 M9.1,24.5l-5.3,2.7v-20l5.3-2.7V24.5z M15.5,27.2l-5.3-2.7v-20l5.3,2.7C15.5,7.2,15.5,27.2,15.5,27.2z M21.9,24.5l-5.3,2.7v-20
	l5.3-2.7V24.5z M28.3,27.2l-5.3-2.7v-20l5.3,2.7V27.2z" fill="#af1857"/>
</svg>
