<?xml version="1.0" encoding="utf-8"?>
<svg version="1.1" id="Layer_1" xmlns="http://www.w3.org/2000/svg" xmlns:xlink="http://www.w3.org/1999/xlink" x="0px" y="0px"
	 viewBox="0 0 27 32" style="enable-background:new 0 0 27 32;" xml:space="preserve">
<g id="icomoon-ignore">
</g>
<path d="M22.3,21.8c-1.1-0.5-3.9-1.4-5.6-1.9c-0.1,0-0.2-0.1-0.2-0.6c0-0.5,0.2-1,0.4-1.4c0.2-0.5,0.5-1.2,0.6-1.9
	c0.3-0.3,0.6-0.9,0.8-2c0.2-1,0.1-1.3,0-1.7c0,0,0-0.1,0-0.1c0-0.2,0-1.4,0.2-2.4c0.1-0.6,0-2-0.9-3.1C17,6,15.9,5.1,14,5l-1.1,0
	C11,5.1,10,6,9.4,6.7c-0.9,1.1-1,2.5-0.9,3.1c0.2,0.9,0.2,2.1,0.2,2.3c0,0,0,0.1,0,0.1c-0.1,0.3-0.2,0.7,0,1.7
	c0.2,1.1,0.6,1.7,0.8,2c0.1,0.7,0.3,1.5,0.6,1.9c0.2,0.3,0.2,0.8,0.2,1.4c0,0.6,0,0.6-0.2,0.6c-1.7,0.5-4.5,1.5-5.5,2
	c-0.8,0.4-1,1-1,1.5s0,2.3,0,2.6c0,0.4,0.2,1,1,1c0.6,0,5.5,0,7.7,0c0.7,0,1.1,0,1.1,0h0.2c0,0,0.4,0,1.1,0c2.2,0,7.1,0,7.7,0
	c0.8,0,1-0.6,1-1s0-2.1,0-2.6S23.1,22.1,22.3,21.8L22.3,21.8z M22.4,26H4.6v-2.6c0-0.3,0.1-0.5,0.4-0.6c1-0.4,3.7-1.4,5.4-1.9
	c0.9-0.3,0.9-1.1,0.9-1.6c0-0.8-0.1-1.4-0.3-1.9c-0.2-0.4-0.4-1-0.5-1.6l0-0.3l-0.2-0.2c-0.1-0.1-0.4-0.5-0.6-1.5
	c-0.2-0.8-0.1-0.9,0-1.1c0-0.1,0.1-0.2,0.1-0.2l0,0l0,0c0.1-0.5,0-2-0.2-2.8c-0.1-0.4,0-1.4,0.7-2.3C10.7,6.8,11.5,6.1,13,6l1,0
	c1.2,0.1,2.1,0.5,2.8,1.3c0.7,0.9,0.8,1.9,0.7,2.3c-0.1,0.8-0.3,2.3-0.2,2.8l0,0l0,0c0,0.1,0,0.1,0.1,0.2l0,0l0,0
	c0.1,0.2,0.1,0.3,0,1.1c-0.2,1-0.5,1.4-0.6,1.5l-0.2,0.2l0,0.3c-0.1,0.6-0.3,1.2-0.5,1.6c-0.2,0.5-0.5,1.2-0.5,1.9
	c0,0.6,0,1.4,0.9,1.7c1.6,0.5,4.3,1.4,5.4,1.9c0.4,0.2,0.6,0.5,0.6,0.6L22.4,26L22.4,26z"  fill="#554455"/>
</svg>
