<?xml version="1.0" encoding="utf-8"?>
<!-- Generator: Adobe Illustrator 22.1.0, SVG Export Plug-In . SVG Version: 6.00 Build 0)  -->
<svg version="1.1" id="Layer_1" xmlns="http://www.w3.org/2000/svg" xmlns:xlink="http://www.w3.org/1999/xlink" x="0px" y="0px"
	 viewBox="0 0 32 32" style="enable-background:new 0 0 32 32;" xml:space="preserve">
<g id="icomoon-ignore">
</g>
<path d="M28.6,27.3L21.3,20c1.5-1.8,2.3-4,2.3-6.5c0-5.6-4.5-10.1-10.1-10.1S3.4,7.9,3.4,13.5s4.5,10.1,10.1,10.1
	c2.5,0,4.7-0.9,6.5-2.3l7.3,7.3C27.3,28.6,28.6,27.3,28.6,27.3z M4.5,13.5c0-5,4.1-9.1,9.1-9.1c5,0,9.1,4.1,9.1,9.1
	s-4.1,9.1-9.1,9.1C8.5,22.6,4.5,18.5,4.5,13.5z" fill="#af1857"/>
</svg>
