<?xml version="1.0" encoding="utf-8"?>
<!-- Generator: Adobe Illustrator 22.1.0, SVG Export Plug-In . SVG Version: 6.00 Build 0)  -->
<svg version="1.1" id="Layer_1" xmlns="http://www.w3.org/2000/svg" xmlns:xlink="http://www.w3.org/1999/xlink" x="0px" y="0px"
	 viewBox="0 0 27 32" style="enable-background:new 0 0 27 32;" xml:space="preserve">
<g id="icomoon-ignore">
</g>
<path d="M18.7,21.8c-1.1-0.5-3.9-1.4-5.6-1.9c-0.1,0-0.2-0.1-0.2-0.6c0-0.5,0.2-1,0.4-1.4c0.2-0.5,0.5-1.2,0.6-1.9
	c0.3-0.3,0.6-0.9,0.8-2c0.2-1,0.1-1.3,0-1.7c0,0,0-0.1,0-0.1c0-0.2,0-1.4,0.2-2.4c0.1-0.6,0-2-0.9-3.1C13.4,6,12.4,5.1,10.4,5L9.4,5
	c-1.9,0.1-3,1-3.5,1.7C5,7.8,4.9,9.1,5,9.8c0.2,0.9,0.2,2.1,0.2,2.3c0,0,0,0.1,0,0.1c-0.1,0.3-0.2,0.7,0,1.7c0.2,1.1,0.6,1.7,0.8,2
	c0.1,0.7,0.3,1.5,0.6,1.9c0.2,0.3,0.2,0.8,0.2,1.4c0,0.6,0,0.6-0.2,0.6c-1.7,0.5-4.5,1.5-5.5,2c-0.8,0.4-1,1-1,1.5s0,2.3,0,2.6
	c0,0.4,0.2,1,1,1c0.6,0,5.5,0,7.7,0c0.7,0,1.1,0,1.1,0h0.2c0,0,0.4,0,1.1,0c2.2,0,7.1,0,7.7,0c0.8,0,1-0.6,1-1s0-2.1,0-2.6
	S19.5,22.1,18.7,21.8L18.7,21.8z M18.9,26H1v-2.6c0-0.3,0.1-0.5,0.4-0.6c1-0.4,3.7-1.4,5.4-1.9c0.9-0.3,0.9-1.1,0.9-1.6
	c0-0.8-0.1-1.4-0.3-1.9C7.3,17,7,16.3,7,15.8l0-0.3l-0.2-0.2c-0.1-0.1-0.4-0.5-0.6-1.5c-0.2-0.8-0.1-0.9,0-1.1
	c0-0.1,0.1-0.2,0.1-0.2l0,0l0,0c0.1-0.5,0-2-0.2-2.8C5.9,9.2,6,8.2,6.7,7.3C7.1,6.8,7.9,6.1,9.4,6l1,0c1.2,0.1,2.1,0.5,2.8,1.3
	c0.7,0.9,0.8,1.9,0.7,2.3c-0.1,0.8-0.3,2.3-0.2,2.8l0,0l0,0c0,0.1,0,0.1,0.1,0.2l0,0l0,0c0.1,0.2,0.1,0.3,0,1.1
	c-0.2,1-0.5,1.4-0.6,1.5L13,15.5l0,0.3c-0.1,0.6-0.3,1.2-0.5,1.6c-0.2,0.5-0.5,1.2-0.5,1.9c0,0.6,0,1.4,0.9,1.7
	c1.6,0.5,4.3,1.4,5.4,1.9c0.4,0.2,0.6,0.5,0.6,0.6L18.9,26L18.9,26z" fill="#FFFFFF"/>
<path d="M23.1,14.4v-4.2h-1v4.2h-4.2v1H22v4.2h1v-4.2h4.2v-1H23.1z" fill="#FFFFFF"/>
</svg>
