<?xml version="1.0" encoding="utf-8"?>
<!-- Generator: Adobe Illustrator 19.2.1, SVG Export Plug-In . SVG Version: 6.00 Build 0)  -->
<svg version="1.1" id="Layer_1" xmlns="http://www.w3.org/2000/svg" xmlns:xlink="http://www.w3.org/1999/xlink" x="0px" y="0px"
	 width="574.7px" height="98.7px" viewBox="0 0 574.7 98.7" style="enable-background:new 0 0 574.7 98.7;" xml:space="preserve">
<style type="text/css">
	.st0{fill:#AE1857;}
</style>
<path class="st0" d="M35.3,94.4c-0.7,0-1.4-0.3-1.8-0.9c-1.4-1.8-6.1-8.6-6.8-9.6C19,72.6,10.9,61.6,6,48.7
	c-2.9-7.6-2.9-17.9,0-24.9c2.5-6,6.9-11.2,12.4-14.7c5.1-3.2,10.9-4.9,16.9-4.9C52.8,4.2,67,18.5,67,35.9V36c0,9.5-4,18.7-11.3,24.8
	c-5.5,4.6-12.8,7.7-20,6.3c-2-0.4-4-1.2-5.5-2.7c-2-2-3-4.7-3-8V24.6c0-1.1,0.3-1.8,0.8-2.2c0.6-0.5,1.5-0.7,2.6-0.7
	c0.8,0,1.5,0.1,2.2,0.3c0.4,0.1,0.6,0.2,0.8,0.2v9.7H45c1.3,0,2.3,0.2,2.7,0.7c0.5,0.5,0.7,1.2,0.7,2.2c0,0.7-0.1,1.4-0.3,2
	c-0.1,0.3-0.2,0.6-0.3,0.9H33.6v17c0,1.4,0.2,2.5,0.6,3.4c1.9,4.4,7.5,4.3,11.3,3.1c12.9-4,19.4-20.3,15.9-32.6
	C57.6,15,42.9,6.4,29.2,9.5c-8.4,1.9-15.6,8.1-18.9,16.1c-2.4,5.8-2.4,15.1,0,21.5C15.1,59.6,23,70.4,30.5,81.4
	c0.4,0.6,2.3,3.3,4,5.7l0.8,1.1l7.1-10.8c1-0.1,1.9-0.2,2.8-0.4c1.2-0.2,2.4-0.6,3.6-1L37.2,93.4C36.8,94,36.1,94.4,35.3,94.4
	L35.3,94.4z"/>
<path class="st0" d="M112.2,17.1c0-1.8,0.5-3.1,1.5-3.9c1-0.8,2.5-1.2,4.3-1.2c1.2,0,2.2,0.1,3.2,0.4c1,0.3,1.7,0.5,2,0.6v12.7h14
	c2.1,0,3.6,0.4,4.5,1.3s1.3,2.1,1.3,3.8c0,1.1-0.2,2.1-0.5,3s-0.6,1.6-0.8,2h-18.6v21.6c0,1.7,0.2,3,0.7,4.1s1.1,1.9,1.9,2.6
	c0.8,0.6,1.7,1.1,2.8,1.4s2.2,0.4,3.3,0.4c1.9,0,3.6-0.3,5.2-0.9c1.6-0.6,2.8-1.1,3.5-1.6l4.5,7.4c-0.5,0.4-1.2,0.9-2.2,1.5
	c-0.9,0.6-2.1,1.1-3.4,1.6c-1.4,0.5-2.9,1-4.5,1.3c-1.7,0.4-3.5,0.5-5.5,0.5c-5.7,0-10-1.5-12.9-4.4s-4.4-6.8-4.4-11.6L112.2,17.1
	L112.2,17.1z"/>
<path class="st0" d="M151.9,43c0-5.9,1.8-10.5,5.5-13.8c3.6-3.3,8.7-4.9,15.1-4.9c4.1,0,7.4,0.6,9.9,1.7s3.8,2.9,3.8,5.2
	c0,1.1-0.3,2.2-0.9,3.2c-0.6,1-1.1,1.7-1.5,1.9c-1.1-0.5-2.5-1-4.1-1.5s-3.5-0.7-5.5-0.7c-7.5,0-11.3,4-11.3,12v28.1h-11V43z"/>
<path class="st0" d="M199.8,4c1.9,0,3.4,0.6,4.7,1.9s1.9,2.9,1.9,4.7c0,1.9-0.6,3.5-1.9,4.7c-1.3,1.3-2.9,1.9-4.7,1.9
	c-1.9,0-3.5-0.6-4.7-1.9c-1.3-1.3-1.9-2.9-1.9-4.7c0-1.9,0.6-3.4,1.9-4.7C196.3,4.6,197.9,4,199.8,4z M194.3,30.9
	c0-1.8,0.5-3.1,1.5-3.9s2.5-1.2,4.4-1.2c1.2,0,2.2,0.1,3.2,0.4s1.6,0.5,1.9,0.6v47.5h-11L194.3,30.9L194.3,30.9z"/>
<path class="st0" d="M215.6,52.2c0-4.5,0.6-8.5,1.9-11.9c1.3-3.5,3.1-6.4,5.4-8.7c2.3-2.4,5.1-4.1,8.4-5.4c3.3-1.2,6.9-1.8,10.9-1.8
	c3.7,0,7.1,0.6,10.2,1.9c3.1,1.3,5.8,3.1,8.1,5.3c2.3,2.3,4.1,5,5.4,8.1c1.3,3.2,1.9,6.6,1.9,10.3s-0.6,7.2-1.9,10.3s-3,5.8-5.2,8.1
	c-2.2,2.3-4.8,4-7.8,5.3s-6.3,1.9-9.8,1.9c-3.7,0-6.9-0.7-9.8-2.1c-2.8-1.4-5.1-3.2-6.7-5.2v25.4h-11L215.6,52.2L215.6,52.2z
	 M241.6,65.8c2.2,0,4.2-0.4,6-1.2c1.8-0.8,3.4-1.9,4.7-3.3c1.3-1.4,2.3-3.1,3-5s1.1-4,1.1-6.3c0-2.2-0.4-4.2-1.1-6.1
	c-0.7-1.9-1.7-3.5-3-4.9s-2.9-2.5-4.7-3.3s-3.9-1.2-6-1.2c-2.2,0-4.2,0.4-6,1.2s-3.4,1.8-4.7,3.2s-2.4,3-3.1,4.9
	c-0.7,1.9-1.1,4-1.1,6.3s0.4,4.4,1.1,6.3c0.7,1.9,1.8,3.6,3,5c1.3,1.4,2.9,2.5,4.7,3.3C237.2,65.4,239.3,65.8,241.6,65.8z"/>
<path class="st0" d="M279.2,62.2c0.5,0.3,1.3,0.7,2.4,1.3c1.2,0.5,2.6,1,4.3,1.6c1.7,0.5,3.7,1,5.9,1.4c2.2,0.4,4.6,0.6,7.2,0.6
	c3.4,0,6.1-0.4,8.2-1.3s3.2-2.4,3.2-4.5c0-1.8-0.7-3.2-2-4.1c-1.4-0.9-3.8-1.6-7.3-2l-7.5-0.9c-2.6-0.3-5-0.7-7.1-1.4
	c-2.2-0.7-4-1.6-5.6-2.8c-1.5-1.2-2.8-2.6-3.6-4.3c-0.9-1.7-1.3-3.8-1.3-6.1c0-2.1,0.4-4,1.2-5.9c0.8-1.8,2.1-3.5,3.9-4.9
	s4-2.5,6.9-3.3c2.8-0.8,6.2-1.2,10.2-1.2c6.7,0,11.9,0.7,15.6,2.2s5.6,3.4,5.6,5.8c0,0.8-0.1,1.5-0.4,2c-0.3,0.6-0.6,1.1-1,1.5
	c-0.4,0.5-0.7,0.8-1.1,1.1s-0.7,0.5-0.9,0.5c-0.3-0.3-0.8-0.7-1.7-1.2c-0.9-0.5-2-1.1-3.5-1.6s-3.3-1-5.3-1.5
	c-2.1-0.4-4.5-0.6-7.2-0.6c-7.5,0-11.2,2-11.2,5.9c0,1.7,0.7,3,2.1,3.8c1.4,0.9,3.4,1.5,6.1,1.8l9.8,1.3c5.3,0.7,9.5,2.2,12.4,4.4
	c3,2.2,4.4,5.5,4.4,9.8c0,4.8-1.9,8.7-5.8,11.6c-3.8,2.9-9.4,4.4-16.6,4.4c-3.5,0-6.6-0.3-9.5-0.8c-2.8-0.5-5.3-1.1-7.4-1.8
	c-2.1-0.7-3.8-1.3-5.1-2c-1.3-0.6-2.1-1.1-2.5-1.5L279.2,62.2z"/>
<path class="st0" d="M381,50.4c0,3.5-0.6,6.8-1.9,9.8c-1.3,3.1-3.1,5.7-5.4,8c-2.3,2.3-5,4.1-8.2,5.4s-6.6,2-10.4,2
	c-3.7,0-7.2-0.7-10.4-2c-3.2-1.3-5.9-3.1-8.2-5.4c-2.3-2.3-4.1-5-5.4-8c-1.3-3.1-1.9-6.3-1.9-9.8s0.6-6.9,1.9-9.9
	c1.3-3.1,3.1-5.7,5.4-8s5-4.1,8.2-5.4s6.6-1.9,10.4-1.9c3.7,0,7.2,0.6,10.4,1.9c3.2,1.3,5.9,3.1,8.2,5.4c2.3,2.3,4.1,5,5.4,8
	C380.3,43.5,381,46.9,381,50.4z M374.1,50.4c0-2.8-0.5-5.4-1.4-7.8c-0.9-2.4-2.2-4.5-3.9-6.3c-1.7-1.8-3.7-3.2-6-4.2
	s-4.9-1.5-7.7-1.5c-2.8,0-5.4,0.5-7.7,1.5c-2.3,1-4.3,2.4-6,4.2s-3,3.9-3.9,6.3c-0.9,2.4-1.4,5-1.4,7.8c0,2.7,0.5,5.3,1.4,7.7
	s2.2,4.5,3.9,6.3c1.6,1.8,3.6,3.2,6,4.2c2.3,1,4.9,1.5,7.7,1.5c2.8,0,5.4-0.5,7.7-1.5c2.3-1,4.3-2.4,6-4.2c1.7-1.8,3-3.9,3.9-6.3
	C373.6,55.7,374.1,53.1,374.1,50.4z"/>
<path class="st0" d="M390,6.3c0-1,0.3-1.8,0.8-2.4s1.4-0.9,2.7-0.9c0.6,0,1.1,0.1,1.7,0.2c0.5,0.2,1,0.3,1.2,0.4v70.6H390V6.3z"/>
<path class="st0" d="M457.2,50.4c0,3.5-0.6,6.8-1.9,9.8c-1.3,3.1-3.1,5.7-5.4,8c-2.3,2.3-5,4.1-8.2,5.4s-6.6,2-10.4,2
	c-3.7,0-7.2-0.7-10.4-2c-3.2-1.3-5.9-3.1-8.2-5.4c-2.3-2.3-4.1-5-5.4-8c-1.3-3.1-1.9-6.3-1.9-9.8s0.6-6.9,1.9-9.9
	c1.3-3.1,3.1-5.7,5.4-8s5-4.1,8.2-5.4s6.6-1.9,10.4-1.9c3.7,0,7.2,0.6,10.4,1.9c3.2,1.3,5.9,3.1,8.2,5.4c2.3,2.3,4.1,5,5.4,8
	C456.5,43.5,457.2,46.9,457.2,50.4z M450.3,50.4c0-2.8-0.5-5.4-1.4-7.8c-0.9-2.4-2.2-4.5-3.9-6.3c-1.7-1.8-3.7-3.2-6-4.2
	s-4.9-1.5-7.7-1.5c-2.8,0-5.4,0.5-7.7,1.5c-2.3,1-4.3,2.4-6,4.2s-3,3.9-3.9,6.3c-0.9,2.4-1.4,5-1.4,7.8c0,2.7,0.5,5.3,1.4,7.7
	s2.2,4.5,3.9,6.3c1.6,1.8,3.6,3.2,6,4.2c2.3,1,4.9,1.5,7.7,1.5c2.8,0,5.4-0.5,7.7-1.5c2.3-1,4.3-2.4,6-4.2c1.7-1.8,3-3.9,3.9-6.3
	C449.8,55.7,450.3,53.1,450.3,50.4z"/>
<path class="st0" d="M516.1,66.1c0,5.2-0.7,9.6-2,13.2c-1.4,3.6-3.2,6.6-5.6,8.9s-5.3,3.9-8.6,4.9c-3.3,1-6.9,1.5-10.8,1.5
	c-4.9,0-8.8-0.4-11.7-1.2c-2.9-0.8-5-1.5-6.3-2l1.7-5.2c0.4,0.1,1,0.4,1.9,0.7c0.9,0.4,2,0.7,3.3,1c1.4,0.3,2.9,0.6,4.6,0.9
	s3.6,0.4,5.7,0.4c2.3,0,4.7-0.2,7.3-0.7c2.5-0.5,4.8-1.5,6.9-3s3.8-3.7,5.2-6.5c1.4-2.8,2.1-6.6,2.1-11.3v-2.3
	c-2.1,3.4-4.7,5.9-7.9,7.6c-3.2,1.7-6.9,2.6-11.2,2.6c-4,0-7.6-0.6-10.7-1.9c-3.2-1.3-5.8-3.1-8-5.4s-3.8-5-5-8
	c-1.2-3.1-1.7-6.4-1.7-9.9s0.6-6.8,1.9-9.8c1.3-3.1,3-5.7,5.3-8s4.9-4.1,8.1-5.4c3.1-1.3,6.6-2,10.4-2c3.2,0,6.2,0.5,9,1.4
	s5.2,2.3,7.3,4c2.1,1.7,3.9,3.9,5.3,6.4c1.4,2.5,2.4,5.4,3,8.5c0.1,0.9,0.2,2,0.3,3.1c0.1,1.2,0.1,2.6,0.1,4.1v13.4H516.1z
	 M472.3,50.4c0,2.9,0.4,5.6,1.3,8c0.9,2.5,2.1,4.5,3.8,6.3c1.6,1.7,3.6,3.1,5.9,4.1s4.9,1.5,7.8,1.5c2.8,0,5.4-0.5,7.7-1.5
	c2.3-1,4.3-2.4,5.9-4.2c1.6-1.8,2.9-3.9,3.8-6.3c0.9-2.4,1.3-5,1.3-7.9c0-2.8-0.5-5.5-1.4-7.8c-0.9-2.4-2.2-4.5-3.8-6.2
	c-1.6-1.7-3.6-3.1-5.9-4.1s-4.9-1.5-7.6-1.5c-2.9,0-5.5,0.5-7.8,1.5s-4.3,2.4-5.9,4.2s-2.9,3.9-3.8,6.3S472.3,47.7,472.3,50.4z"/>
<path class="st0" d="M570.8,70.8c0,4.2-0.6,7.8-1.7,10.8c-1.2,3-2.8,5.5-4.9,7.4c-2.1,1.9-4.7,3.4-7.7,4.3s-6.4,1.4-10.1,1.4
	c-4.8,0-8.9-0.4-12-1.2c-3.2-0.8-5.4-1.5-6.7-2l1.8-5c1.3,0.5,3.4,1.1,6.2,1.8c2.8,0.7,6.4,1,10.6,1c2.4,0,4.7-0.3,6.9-0.8
	s4.2-1.4,5.9-2.7c1.7-1.3,3-3.1,4-5.3c1-2.3,1.5-5.1,1.5-8.5v-4.5c-1.2,2.5-3.3,4.4-6.3,6c-3,1.5-6.5,2.3-10.6,2.3
	c-7,0-12.4-1.8-16.2-5.5c-3.7-3.7-5.6-8.7-5.6-15V29.8c0-1,0.3-1.8,0.8-2.4s1.4-0.9,2.7-0.9c0.6,0,1.1,0.1,1.7,0.2
	c0.5,0.2,1,0.3,1.2,0.4v26.6c0,5.2,1.3,9.2,3.8,12c2.5,2.9,6.5,4.3,11.9,4.3c5.6,0,9.8-1.5,12.5-4.6s4.1-7.3,4.1-12.7v-23
	c0-1,0.3-1.8,0.8-2.4s1.4-0.9,2.7-0.9c0.6,0,1.1,0.1,1.7,0.2c0.5,0.2,1,0.3,1.2,0.4v43.8H570.8z"/>
</svg>
